<?xml version="1.0" standalone="no"?>
<!DOCTYPE svg PUBLIC "-//W3C//DTD SVG 20010904//EN"
 "http://www.w3.org/TR/2001/REC-SVG-20010904/DTD/svg10.dtd">
<svg version="1.0" xmlns="http://www.w3.org/2000/svg"
 width="1252.000000pt" height="1280.000000pt" viewBox="0 0 1252.000000 1280.000000"
 preserveAspectRatio="xMidYMid meet">
<metadata>
Created by potrace 1.15, written by Peter Selinger 2001-2017
</metadata>
<g transform="translate(0.000000,1280.000000) scale(0.100000,-0.100000)"
 stroke="none">
<path d="M8035 12540 c-493 -58 -953 -408 -1172 -890 -253 -556 -265 -1254
-37 -2053 170 -596 502 -1294 898 -1891 l85 -130 -64 -110 c-139 -241 -243
-488 -279 -668 -21 -100 -21 -285 -1 -363 48 -183 183 -335 555 -627 242 -190
329 -286 345 -378 23 -136 -127 -282 -382 -373 -139 -50 -458 -121 -813 -182
-382 -65 -729 -159 -891 -240 -196 -99 -302 -212 -360 -380 -167 -493 -23
-1182 436 -2070 173 -337 395 -711 631 -1064 57 -85 102 -156 100 -158 -1 -2
-85 19 -187 47 -662 178 -1156 388 -1584 673 -767 513 -1131 949 -1221 1467
-46 268 27 452 357 897 302 406 385 629 335 896 -70 369 -346 780 -822 1222
l-123 114 42 33 c214 166 680 614 896 863 566 650 923 1276 1070 1877 58 237
66 310 66 593 -1 233 -3 271 -23 365 -141 648 -590 1098 -1197 1202 -172 29
-437 22 -575 -14 -226 -60 -399 -156 -602 -333 -134 -117 -273 -307 -368 -501
-55 -113 -128 -326 -155 -454 -10 -47 -21 -89 -25 -93 -4 -4 -39 29 -78 75
-288 340 -619 549 -994 629 -133 29 -374 36 -500 15 -293 -48 -577 -202 -798
-432 -189 -197 -303 -423 -362 -716 -32 -161 -32 -424 0 -586 58 -290 190
-569 405 -855 105 -140 363 -404 507 -518 609 -485 1392 -847 2373 -1099 l227
-58 114 -102 c241 -213 472 -472 621 -695 164 -244 268 -542 251 -715 -20
-199 -97 -351 -355 -704 -216 -294 -302 -445 -341 -600 -62 -244 27 -596 227
-901 183 -277 421 -502 877 -828 378 -270 700 -436 1171 -604 192 -69 553
-176 723 -214 l104 -23 115 -166 c121 -171 399 -552 479 -653 44 -57 46 -58
65 -41 11 10 18 23 15 29 -2 7 -76 108 -163 226 -150 201 -357 489 -398 552
l-18 28 24 -5 c131 -31 840 -156 883 -156 12 0 32 47 24 56 -2 1 -91 17 -198
34 -289 46 -692 123 -774 147 -18 5 -242 338 -403 598 -487 788 -784 1487
-858 2015 -21 151 -21 398 0 510 58 307 168 439 470 559 187 75 377 121 870
211 499 91 688 140 865 226 292 143 368 354 197 550 -72 82 -129 133 -358 316
-361 289 -455 420 -466 648 -6 126 11 234 65 395 38 116 173 396 242 503 l41
64 212 -9 c961 -38 1807 74 2497 328 281 104 659 310 855 467 263 210 457 443
575 687 124 259 177 536 152 803 -31 332 -163 616 -401 865 -247 257 -510 382
-877 417 -363 35 -738 -70 -1104 -308 -58 -37 -109 -71 -115 -74 -7 -4 -10 82
-11 250 0 239 -2 266 -27 383 -70 333 -201 583 -422 805 -205 207 -415 319
-703 374 -120 23 -347 33 -457 20z"/>
</g>
</svg>
